<?xml version="1.0" encoding="iso-8859-1"?>
<!-- Uploaded to: SVG Repo, www.svgrepo.com, Generator: SVG Repo Mixer Tools -->
<svg version="1.1" id="Layer_1" xmlns="http://www.w3.org/2000/svg" xmlns:xlink="http://www.w3.org/1999/xlink" 
	 viewBox="0 0 504.8 504.8" xml:space="preserve">
<polygon style="fill:#CC9966;" points="456,47.4 484,92.2 456,103.4 428,92.2 "/>
<path style="fill:#42210B;" d="M504,392.2v59.2c0,16-12.8,28.8-28.8,28.8h-38.4c-16,0-28.8-12.8-28.8-28.8V96.2c0-1.6,0.8-3.2,1.6-4
	l0,0l40-64c3.2-4.8,10.4-4.8,13.6,0l40,64l0,0c0.8,1.6,1.6,2.4,1.6,4v280v16H504z M488,451.4v-59.2h-16v-16h16v-268l-24,9.6v154.4
	h-16V117.8l-24-9.6v268h40v16h-40v59.2c0,7.2,5.6,12.8,12.8,12.8h38.4C482.4,464.2,488,458.6,488,451.4z M484,92.2l-28-44.8
	l-28,44.8l28,11.2L484,92.2z"/>
<path style="fill:#FF9900;" d="M488,392.2v59.2c0,7.2-5.6,12.8-12.8,12.8h-38.4c-7.2,0-12.8-5.6-12.8-12.8v-59.2h40h8H488z"/>
<path style="fill:#FFC600;" d="M488,108.2v268h-16v16h-8v-16h-40v-268l24,9.6v154.4h16V117.8L488,108.2z M464,344.2v-56h-16v56H464z
	"/>
<g>
	<rect x="448" y="288.2" style="fill:#42210B;" width="16" height="56"/>
	<path style="fill:#42210B;" d="M400,192.2v280c0,4-4,8-8,8H80H8c-4,0-8-4-8-8v-336l0,0c2.4-31.2,28-56,60-56h300c4,0,8,3.2,8,8v96
		h24C396,184.2,400,188.2,400,192.2z M384,464.2v-264h-24H88v264H384z M352,184.2v-16H104v-16h248v-24H176v-16h176v-16H60
		c-24,0-44,20-44,44s20,44,44,44H352z M72,464.2v-264H60c-17.6,0-32.8-7.2-44-19.2v283.2H72z"/>
</g>
<path style="fill:#EE5656;" d="M384,200.2v264H88v-264h272H384z M360,320.2v-96c0-4-4-8-8-8H120c-4.8,0-8,4-8,8v96c0,4,3.2,8,8,8
	h232C356,328.2,360,324.2,360,320.2z M352,376.2v-16h-56v16H352z M328,424.2v-16H120v16H328z M264,376.2v-16H120v16H264z"/>
<g>
	<path style="fill:#42210B;" d="M360,224.2v96c0,4-4,8-8,8H120c-4.8,0-8-4-8-8v-96c0-4,3.2-8,8-8h232C356,216.2,360,220.2,360,224.2
		z M344,312.2v-80H128v80H344z"/>
	<rect x="296" y="360.2" style="fill:#42210B;" width="56" height="16"/>
</g>
<path style="fill:#D9CDC1;" d="M352,168.2v16H60c-24,0-44-20-44-44s20-44,44-44h292v16H176v16h176v24H104v16H352z M136,128.2v-16H88
	v16H136z"/>
<path style="fill:#FFF8EF;" d="M352,112.2v-8H76c-24,0-44,20-44,44c0,13.6,6.4,26.4,16.8,34.4c3.2,0.8,7.2,1.6,11.2,1.6h292v-16H104
	v-16h248v-24H176v-16H352z M136,128.2H88v-16h48V128.2z"/>
<rect x="128" y="232.2" style="fill:#FF9900;" width="216" height="80"/>
<g>
	<rect x="120" y="408.2" style="fill:#42210B;" width="208" height="16"/>
	<rect x="120" y="360.2" style="fill:#42210B;" width="144" height="16"/>
	<rect x="88" y="112.2" style="fill:#42210B;" width="48" height="16"/>
</g>
<path style="fill:#E94545;" d="M72,200.2v264H16V181c11.2,12,26.4,19.2,44,19.2H72z"/>
</svg>